<?xml version="1.0" encoding="utf-8"?>
<!-- Generator: Adobe Illustrator 22.0.1, SVG Export Plug-In . SVG Version: 6.00 Build 0)  -->
<svg version="1.1" id="Livello_1" xmlns="http://www.w3.org/2000/svg" xmlns:xlink="http://www.w3.org/1999/xlink" x="0px" y="0px"
	 viewBox="0 0 830 174" style="enable-background:new 0 0 830 174;" xml:space="preserve">
<style type="text/css">
	.st0{fill:#45403F;}
	.st1{fill:#51B289;}
</style>
<g id="logo">
</g>
<g id="appunti">
</g>
<g id="bottoni">
</g>
<g>
	<path class="st0" d="M34.8,135.5v2.3h-13v35h-2.7v-34.9H5.8v-2.3L34.8,135.5L34.8,135.5z"/>
	<path class="st0" d="M69.9,172.8h-2.7V155H43.8v17.8h-2.7v-37.3h2.7v17.4h23.4v-17.4h2.7V172.8z"/>
	<path class="st0" d="M103.2,135.5v2.2H83.5v15.1h16.3v2.1H83.5v15.6h19.7v2.2H80.9v-37.3L103.2,135.5L103.2,135.5z"/>
	<path class="st0" d="M160.1,172.8h-2c-0.3,0-0.5-0.1-0.6-0.2c-0.2-0.1-0.3-0.3-0.4-0.5l-4.4-10.8h-18.3l-4.4,10.8
		c-0.1,0.2-0.2,0.4-0.4,0.5s-0.4,0.2-0.6,0.2h-2l15.3-37.3h2.7L160.1,172.8z M135.2,159.3h16.7l-7.6-18.8c-0.1-0.3-0.3-0.7-0.4-1
		c-0.1-0.4-0.3-0.8-0.4-1.2c-0.1,0.4-0.3,0.8-0.4,1.2c-0.1,0.4-0.3,0.7-0.4,1.1L135.2,159.3z"/>
	<path class="st0" d="M180,170.8c1.8,0,3.4-0.3,4.8-1c1.5-0.6,2.6-1.5,3.6-2.6s1.8-2.4,2.2-3.9c0.5-1.5,0.8-3.1,0.8-4.9v-23.1h2.7
		v23.1c0,2-0.3,4-1,5.7c-0.7,1.8-1.6,3.3-2.8,4.7s-2.7,2.3-4.5,3.1c-1.8,0.8-3.7,1.2-5.8,1.2s-4.2-0.4-5.8-1.2
		c-1.8-0.8-3.2-1.8-4.5-3.1s-2.1-2.9-2.8-4.7s-1-3.7-1-5.7v-23.1h2.7v23c0,1.8,0.3,3.3,0.8,4.9c0.5,1.5,1.3,2.8,2.2,3.9
		s2.1,1.9,3.6,2.6C176.6,170.6,178.2,170.8,180,170.8z"/>
	<path class="st0" d="M235.1,154.2c0,2.9-0.4,5.4-1.3,7.8s-2,4.3-3.6,5.8c-1.6,1.7-3.4,2.8-5.6,3.7c-2.1,0.9-4.6,1.3-7.2,1.3h-13.6
		v-37.3h13.6c2.6,0,5.1,0.4,7.2,1.3s4.1,2.1,5.6,3.7c1.6,1.7,2.7,3.6,3.6,5.8C234.6,148.8,235.1,151.3,235.1,154.2z M232.2,154.2
		c0-2.6-0.4-4.9-1.1-6.9s-1.8-3.8-3-5.2c-1.3-1.4-2.9-2.4-4.8-3.2c-1.8-0.8-3.9-1.1-6.1-1.1h-10.9v32.9h10.9c2.2,0,4.3-0.4,6.1-1.1
		c1.8-0.8,3.4-1.8,4.8-3.2c1.3-1.4,2.3-3.1,3-5.2C231.8,159.1,232.2,156.7,232.2,154.2z"/>
	<path class="st0" d="M246.1,172.8h-2.7v-37.3h2.7V172.8z"/>
	<path class="st0" d="M291.3,154.2c0,2.9-0.4,5.4-1.3,7.8s-2,4.4-3.6,6c-1.6,1.7-3.4,2.9-5.6,3.8c-2.1,0.9-4.6,1.4-7.2,1.4
		s-5-0.5-7.2-1.4c-2.1-0.9-4.1-2.1-5.6-3.8c-1.6-1.7-2.8-3.7-3.6-6c-0.9-2.3-1.3-5-1.3-7.8s0.4-5.4,1.3-7.8s2-4.4,3.6-6
		c1.6-1.7,3.4-2.9,5.6-3.9c2.1-0.9,4.6-1.4,7.2-1.4s5.1,0.5,7.2,1.4s4.1,2.2,5.6,3.9s2.7,3.7,3.6,6
		C290.9,148.8,291.3,151.3,291.3,154.2z M288.4,154.2c0-2.6-0.4-5-1.1-7s-1.8-3.8-3-5.3c-1.3-1.5-2.9-2.5-4.8-3.3s-3.9-1.2-6.1-1.2
		s-4.3,0.4-6,1.2c-1.8,0.8-3.4,1.8-4.8,3.3s-2.3,3.2-3.1,5.3c-0.7,2-1.1,4.4-1.1,7s0.4,5,1.1,7s1.8,3.8,3.1,5.3
		c1.4,1.5,2.9,2.5,4.8,3.3s3.9,1.2,6,1.2c2.2,0,4.3-0.4,6.1-1.2c1.8-0.8,3.4-1.8,4.8-3.3c1.3-1.5,2.3-3.2,3-5.3
		S288.4,156.7,288.4,154.2z"/>
	<path class="st0" d="M303.2,157.8v15h-2.7v-37.3h9.6c4.4,0,7.7,1,9.9,2.8c2.2,1.9,3.3,4.7,3.3,8.2c0,1.7-0.3,3.1-0.9,4.5
		s-1.5,2.5-2.6,3.5s-2.5,1.8-4.2,2.3c-1.7,0.6-3.5,0.9-5.5,0.9L303.2,157.8L303.2,157.8L303.2,157.8z M303.2,155.7h6.9
		c1.7,0,3.1-0.2,4.4-0.7s2.4-1.1,3.3-1.8c0.9-0.8,1.6-1.8,2-2.8s0.7-2.3,0.7-3.6c0-2.8-0.9-5.1-2.6-6.6s-4.4-2.3-7.9-2.3h-6.9
		L303.2,155.7L303.2,155.7L303.2,155.7z"/>
	<path class="st0" d="M360.5,172.8h-2.7V155h-23.4v17.8h-2.7v-37.3h2.7v17.4h23.4v-17.4h2.7V172.8z"/>
	<path class="st0" d="M375,172.8h-2.7v-37.3h2.7V172.8z"/>
	<path class="st0" d="M389.6,170.6h17.7v2.3H387v-37.3h2.7L389.6,170.6L389.6,170.6L389.6,170.6z"/>
	<path class="st0" d="M436.4,135.5v2.2h-19.7v15.1H433v2.1h-16.3v15.6h19.7v2.2h-22.3v-37.3L436.4,135.5L436.4,135.5z"/>
	<path class="st0" d="M483.2,163.5c0.1-0.3,0.2-0.6,0.3-0.9s0.2-0.5,0.4-0.8l14.6-25.9c0.1-0.2,0.3-0.4,0.4-0.4
		c0.1-0.1,0.3-0.1,0.6-0.1h1.8v37.4H499v-31.7c0-0.5,0-1,0.1-1.5l-14.7,26.1c-0.3,0.5-0.6,0.7-1.1,0.7h-0.4c-0.5,0-0.8-0.2-1.1-0.7
		l-15-26.1c0.1,0.5,0.1,1,0.1,1.5v31.7h-2.2v-37.3h1.8c0.3,0,0.5,0,0.6,0.1c0.2,0.1,0.3,0.2,0.4,0.4l15,25.9
		C482.7,162.5,483,163,483.2,163.5z"/>
	<path class="st0" d="M526.4,170.8c1.8,0,3.4-0.3,4.8-1c1.5-0.6,2.6-1.5,3.6-2.6s1.8-2.4,2.2-3.9c0.5-1.5,0.8-3.1,0.8-4.9v-23.1h2.7
		v23.1c0,2-0.3,4-1,5.7c-0.7,1.8-1.6,3.3-2.8,4.7s-2.7,2.3-4.5,3.1c-1.8,0.8-3.7,1.2-5.8,1.2s-4.2-0.4-5.8-1.2
		c-1.8-0.8-3.2-1.8-4.5-3.1s-2.1-2.9-2.8-4.7s-1-3.7-1-5.7v-23.1h2.7v23c0,1.8,0.3,3.3,0.8,4.9c0.5,1.5,1.3,2.8,2.2,3.9
		c1,1.1,2.1,1.9,3.6,2.6C523,170.6,524.7,170.8,526.4,170.8z"/>
	<path class="st0" d="M569.3,140.1c-0.2,0.3-0.4,0.5-0.7,0.5c-0.2,0-0.5-0.2-0.9-0.5s-0.9-0.7-1.5-1.1s-1.4-0.8-2.3-1.1
		c-0.9-0.3-2-0.5-3.4-0.5s-2.5,0.2-3.6,0.6s-1.8,0.9-2.6,1.6c-0.7,0.7-1.3,1.5-1.6,2.3c-0.4,0.9-0.6,1.8-0.6,2.7
		c0,1.3,0.3,2.3,0.8,3.1c0.6,0.8,1.3,1.6,2.1,2.1c0.9,0.6,1.8,1.1,3,1.5c1.1,0.4,2.2,0.8,3.4,1.2c1.2,0.4,2.3,0.8,3.4,1.3
		s2.1,1.1,3,1.8c0.9,0.7,1.6,1.6,2.1,2.6s0.8,2.3,0.8,3.8c0,1.6-0.3,3-0.8,4.4c-0.6,1.4-1.3,2.5-2.3,3.6c-1,1-2.2,1.8-3.7,2.4
		s-3.1,0.9-5.1,0.9c-2.4,0-4.6-0.4-6.3-1.3s-3.3-2-4.7-3.6l0.8-1.2c0.2-0.3,0.5-0.4,0.8-0.4c0.2,0,0.4,0.1,0.6,0.3
		c0.3,0.2,0.6,0.5,0.9,0.8c0.4,0.3,0.8,0.7,1.3,1c0.5,0.4,1.1,0.7,1.8,1s1.4,0.6,2.2,0.8c0.9,0.2,1.8,0.3,2.9,0.3
		c1.5,0,2.8-0.2,4-0.7s2.1-1.1,2.9-1.8c0.8-0.8,1.4-1.7,1.8-2.7c0.4-1.1,0.6-2.2,0.6-3.4c0-1.4-0.3-2.4-0.8-3.2
		c-0.6-0.9-1.3-1.6-2.1-2.1s-1.8-1.1-3-1.5c-1.1-0.4-2.2-0.8-3.4-1.2c-1.2-0.4-2.3-0.8-3.4-1.3s-2.1-1.1-3-1.8
		c-0.9-0.7-1.6-1.6-2.1-2.6s-0.8-2.4-0.8-4c0-1.3,0.2-2.4,0.7-3.6s1.2-2.1,2-3.1c0.9-0.9,2-1.6,3.4-2.1s2.9-0.8,4.6-0.8
		c1.9,0,3.7,0.3,5.2,0.9c1.6,0.6,2.9,1.6,4.2,2.8L569.3,140.1z"/>
	<path class="st0" d="M582.7,172.8H580v-37.3h2.7V172.8z"/>
	<path class="st0" d="M621.8,166.6c0.2,0,0.3,0.1,0.5,0.2l1.1,1.2c-0.8,0.8-1.7,1.6-2.5,2.2c-0.9,0.7-1.9,1.3-3,1.7
		c-1.1,0.5-2.2,0.8-3.6,1.1c-1.3,0.3-2.7,0.4-4.3,0.4c-2.6,0-5-0.5-7.1-1.4s-4-2.1-5.5-3.8c-1.6-1.7-2.7-3.7-3.6-6
		c-0.9-2.3-1.3-5-1.3-7.9c0-2.8,0.5-5.4,1.4-7.8c0.9-2.3,2.1-4.4,3.7-6c1.6-1.7,3.5-3,5.7-3.9s4.7-1.4,7.4-1.4
		c1.4,0,2.6,0.1,3.7,0.3c1.2,0.2,2.1,0.5,3.1,0.9s1.8,0.9,2.7,1.4c0.9,0.6,1.7,1.2,2.5,1.9l-0.8,1.2c-0.1,0.2-0.4,0.3-0.7,0.3
		c-0.2,0-0.4-0.1-0.6-0.3c-0.3-0.2-0.6-0.4-1-0.7s-0.9-0.6-1.4-0.9c-0.6-0.3-1.2-0.6-1.9-0.9c-0.8-0.3-1.6-0.5-2.5-0.7
		s-2-0.3-3.3-0.3c-2.2,0-4.4,0.4-6.2,1.2s-3.5,1.8-4.9,3.3s-2.4,3.2-3.2,5.3c-0.8,2-1.2,4.4-1.2,6.9c0,2.6,0.4,5,1.2,7
		s1.8,3.8,3.1,5.3s2.9,2.5,4.8,3.3s3.8,1.2,5.9,1.2c1.4,0,2.5-0.1,3.6-0.3s2-0.5,2.9-0.8c0.9-0.4,1.7-0.8,2.4-1.3s1.5-1.1,2.2-1.8
		c0.1-0.1,0.2-0.1,0.3-0.2C621.5,166.6,621.6,166.6,621.8,166.6z"/>
	<path class="st0" d="M652.2,157.8v15h-2.7v-37.3h9.6c4.4,0,7.7,1,9.9,2.8c2.2,1.9,3.3,4.7,3.3,8.2c0,1.7-0.3,3.1-0.9,4.5
		s-1.5,2.5-2.6,3.5s-2.5,1.8-4.2,2.3c-1.7,0.6-3.5,0.9-5.5,0.9L652.2,157.8L652.2,157.8L652.2,157.8z M652.2,155.7h6.9
		c1.7,0,3.1-0.2,4.4-0.7s2.4-1.1,3.3-1.8c0.9-0.8,1.6-1.8,2-2.8c0.5-1.1,0.7-2.3,0.7-3.6c0-2.8-0.9-5.1-2.6-6.6
		c-1.8-1.6-4.4-2.3-7.9-2.3h-6.9L652.2,155.7L652.2,155.7L652.2,155.7z"/>
	<path class="st0" d="M682.5,170.6h17.7v2.3h-20.3v-37.3h2.7L682.5,170.6L682.5,170.6L682.5,170.6z"/>
	<path class="st0" d="M738.6,172.8h-2c-0.3,0-0.5-0.1-0.6-0.2c-0.2-0.1-0.3-0.3-0.4-0.5l-4.4-10.8h-18.3l-4.4,10.8
		c-0.1,0.2-0.2,0.4-0.4,0.5s-0.4,0.2-0.6,0.2h-2l15.3-37.3h2.7L738.6,172.8z M713.6,159.3h16.7l-7.6-18.8c-0.1-0.3-0.3-0.7-0.4-1
		c-0.1-0.4-0.3-0.8-0.4-1.2c-0.1,0.4-0.3,0.8-0.4,1.2c-0.1,0.4-0.3,0.7-0.4,1.1L713.6,159.3z"/>
	<path class="st0" d="M753.1,157.4v15.4h-2.7v-15.4l-13.7-21.9h2.3c0.3,0,0.5,0.1,0.6,0.2c0.2,0.1,0.3,0.3,0.4,0.5l10.7,17.1
		c0.3,0.4,0.5,0.8,0.6,1.2c0.2,0.4,0.3,0.8,0.5,1.2c0.1-0.4,0.3-0.8,0.5-1.2c0.2-0.4,0.4-0.8,0.6-1.2l10.6-17.1
		c0.1-0.2,0.2-0.4,0.4-0.5s0.4-0.2,0.6-0.2h2.3L753.1,157.4z"/>
	<path class="st0" d="M795.7,135.5v2.2H776v15.1h16.3v2.1H776v15.6h19.7v2.2h-22.3v-37.3L795.7,135.5L795.7,135.5z"/>
	<path class="st0" d="M806.4,156v16.8h-2.8v-37.3h9.5c4.3,0,7.5,0.9,9.6,2.5c2.1,1.7,3.2,4.1,3.2,7.3c0,1.5-0.3,2.7-0.8,3.9
		c-0.5,1.2-1.2,2.2-2.1,3.1c-0.9,0.9-2,1.7-3.3,2.1c-1.3,0.6-2.7,1-4.4,1.1c0.4,0.3,0.8,0.6,1.2,1.1l12.8,16.2H827
		c-0.3,0-0.5-0.1-0.7-0.2s-0.4-0.3-0.6-0.5L813.6,157c-0.3-0.4-0.6-0.7-1-0.8c-0.4-0.2-0.9-0.2-1.6-0.2H806.4L806.4,156z
		 M806.4,153.9h6.5c1.7,0,3.1-0.2,4.5-0.6c1.3-0.4,2.4-1,3.3-1.7c0.9-0.8,1.6-1.7,2-2.6c0.5-1.1,0.7-2.2,0.7-3.5
		c0-2.6-0.9-4.6-2.6-5.9c-1.8-1.3-4.3-1.9-7.6-1.9h-6.8L806.4,153.9L806.4,153.9z"/>
</g>
<g>
	<path class="st0" d="M64.7,112.7c-1.9,0-3.8-0.3-5.6-0.9C53.6,110,48.8,106,46,100.1l0,0l-43-86c-1.4-2.8-0.6-6.4,1.8-8
		c2.4-1.7,5.5-0.7,6.9,2.1l43,86.1l0,0c1.5,3.1,4,5.3,7,6.2c2.9,0.9,6.1,0.5,8.7-1.4c1.8-1.2,3.2-2.8,4.2-4.9l0,0l43-86.1
		c1.4-2.8,4.5-3.8,6.9-2.1s3.3,5.2,1.9,8l-43,86.1l0,0c-1.9,3.8-4.6,6.9-7.9,9.1C72.2,111.7,68.5,112.7,64.7,112.7z"/>
	<path class="st0" d="M685.1,108.8c-3.2,0-5.8-2.6-5.8-5.8V7.4c0-3.2,2.6-5.8,5.8-5.8s5.8,2.6,5.8,5.8V103
		C691,106.1,688.4,108.8,685.1,108.8z"/>
	<path class="st0" d="M639,108.8c-3.2,0-5.8-2.6-5.8-5.8V45.6c0-17.9-14.5-32.4-32.4-32.4s-32.4,14.5-32.4,32.4V103
		c0,3.2-2.6,5.8-5.8,5.8s-5.8-2.6-5.8-5.8V45.6c0-17.9-14.5-32.4-32.4-32.4s-32.5,14.4-32.5,32.3v57.4c0,3.2-2.6,5.8-5.8,5.8
		s-5.8-2.6-5.8-5.8V45.5c0-24.3,19.8-44.1,44.1-44.1c16.3,0,30.6,9,38.2,22.2c7.6-13.2,21.9-22.2,38.2-22.2
		c24.3,0,44.1,19.8,44.1,44.1v57.4C644.9,106.1,642.3,108.8,639,108.8z"/>
	<path class="st0" d="M407.2,108.8c-24.3,0-44.2-19.8-44.2-44.1V7.3c0-3.2,2.6-5.8,5.8-5.8s5.8,2.6,5.8,5.8v57.4
		c0,17.9,14.5,32.4,32.4,32.4s32.4-14.5,32.4-32.4V7.3c0-3.2,2.6-5.8,5.8-5.8s5.8,2.6,5.8,5.8v57.4
		C451.3,89,431.5,108.8,407.2,108.8z"/>
	<path class="st0" d="M342.3,108.8h-28.7c-24.3,0-44.2-19.8-44.2-44.1V7.3c0-3.2,2.6-5.8,5.8-5.8s5.8,2.6,5.8,5.8v57.4
		c0,17.9,14.5,32.4,32.4,32.4h28.7c3.2,0,5.8,2.6,5.8,5.8C348.3,106.1,345.6,108.8,342.3,108.8z"/>
	<g>
		<path class="st0" d="M814.7,101.9c0-0.6,0.1-1.3,0.3-1.8s0.4-1.2,0.7-1.7s0.7-1,1.1-1.4s0.9-0.8,1.4-1.1s1.1-0.5,1.7-0.7
			s1.2-0.3,1.8-0.3s1.3,0.1,1.8,0.3s1.2,0.4,1.7,0.7c0.5,0.3,1,0.7,1.4,1.1s0.8,0.9,1.1,1.4s0.5,1.1,0.7,1.7s0.3,1.2,0.3,1.8
			c0,0.6-0.1,1.3-0.3,1.8c-0.2,0.6-0.4,1.2-0.7,1.7s-0.7,1-1.1,1.4s-0.9,0.8-1.4,1.1s-1.1,0.5-1.7,0.7s-1.2,0.3-1.8,0.3
			s-1.3-0.1-1.8-0.3s-1.2-0.4-1.7-0.7c-0.5-0.3-1-0.7-1.4-1.1s-0.8-0.9-1.1-1.4s-0.5-1.1-0.7-1.7S814.7,102.6,814.7,101.9z
			 M815.3,101.9c0,0.9,0.2,1.7,0.5,2.4s0.8,1.5,1.4,2c0.6,0.6,1.3,1,1.9,1.4c0.8,0.3,1.6,0.5,2.4,0.5s1.7-0.2,2.4-0.5
			c0.8-0.3,1.5-0.8,2-1.4c0.6-0.6,1-1.3,1.4-2c0.3-0.8,0.5-1.6,0.5-2.4c0-0.9-0.2-1.7-0.5-2.4s-0.8-1.5-1.4-2
			c-0.6-0.6-1.3-1.1-2-1.4s-1.6-0.5-2.4-0.5s-1.7,0.2-2.4,0.5s-1.5,0.8-1.9,1.4c-0.6,0.6-1,1.3-1.4,2
			C815.4,100.3,815.3,101.1,815.3,101.9z M819.8,102.4v3.7H819v-8.3h2.3c1,0,1.7,0.2,2.2,0.6s0.8,0.9,0.8,1.7c0,0.6-0.2,1.2-0.6,1.6
			s-1,0.7-1.8,0.8c0.1,0,0.1,0.1,0.2,0.2c0.1,0.1,0.1,0.1,0.2,0.2l2.7,3.5h-0.8c-0.1,0-0.1,0-0.2,0l-0.1-0.1l-2.5-3.3
			c-0.1-0.1-0.1-0.1-0.2-0.2c-0.1,0-0.2-0.1-0.4-0.1L819.8,102.4L819.8,102.4z M819.8,101.8h1.4c0.8,0,1.4-0.2,1.8-0.5
			c0.4-0.3,0.6-0.8,0.6-1.4s-0.2-1-0.5-1.3s-0.9-0.4-1.7-0.4h-1.6V101.8L819.8,101.8z"/>
	</g>
	<g>
		<path class="st0" d="M191.8,108.8c-29.6,0-53.7-24.1-53.7-53.7s24.1-53.7,53.7-53.7s53.7,24.1,53.7,53.7
			C245.5,84.7,221.4,108.8,191.8,108.8z M191.8,13.1c-23.2,0-42,18.9-42,41.9s18.9,42,42,42c23.2,0,41.9-18.9,41.9-42
			S215,13.1,191.8,13.1z"/>
	</g>
</g>
<path class="st1" d="M189.9,51.2L189.9,51.2c-2.5,1.3-5.6,0.2-6.9-2.3l-9.8-19.6c-1.3-2.5-0.2-5.6,2.3-6.9l0,0
	c2.5-1.3,5.6-0.2,6.9,2.3l9.8,19.6C193.4,46.9,192.4,50,189.9,51.2z"/>
<g>
	<path class="st0" d="M774.9,1.4c29.6,0,53.7,24.1,53.7,53.7s-24.1,53.7-53.7,53.7c-29.6,0-53.7-24.1-53.7-53.7S745.3,1.4,774.9,1.4
		z M774.9,97.1c23.2,0,42-18.9,42-41.9s-18.9-42-42-42c-23.2,0-41.9,18.9-41.9,42S751.7,97.1,774.9,97.1z"/>
</g>
<path class="st1" d="M776.8,59.1L776.8,59.1c2.5-1.3,5.6-0.2,6.9,2.3l9.8,19.6c1.3,2.5,0.2,5.6-2.3,6.9l0,0
	c-2.5,1.3-5.6,0.2-6.9-2.3l-9.8-19.6C773.3,63.4,774.3,60.3,776.8,59.1z"/>
</svg>
